<svg xmlns="http://www.w3.org/2000/svg" viewBox="0 0 85.82496 85.82496"><g id="a0dc7b2d-4e32-4a62-8aa5-32ebf049b4a3" data-name="Layer 2"><g id="eebf9c42-f590-45c3-bdce-c0abd1f2d84e" data-name="Layer 1"><line x1="43.20375" y1="53.81425" x2="43.21795" y2="42.91071" fill="none" stroke="#334142" stroke-miterlimit="10" stroke-width="1.5"/><polyline points="51.357 55.035 46.69 50.369 46.69 42.736" fill="none" stroke="#334142" stroke-miterlimit="10" stroke-width="1.5"/><path d="M49.69926,56.23483a2.09348,2.09348,0,1,1,2.0935,2.09345A2.09354,2.09354,0,0,1,49.69926,56.23483Z" fill="#f5d20e"/><path d="M41.1261,54.403a2.09348,2.09348,0,1,1,2.09346,2.0935A2.09346,2.09346,0,0,1,41.1261,54.403Z" fill="#65cce9"/><polyline points="35.562 55.711 40.229 51.045 40.229 43.412" fill="none" stroke="#334142" stroke-miterlimit="10" stroke-width="1.5"/><path d="M33.2725,56.23483a2.09348,2.09348,0,1,1,2.0935,2.09345A2.09354,2.09354,0,0,1,33.2725,56.23483Z" fill="#65cce9"/><line x1="43.27219" y1="30.33841" x2="43.258" y2="41.24195" fill="none" stroke="#334142" stroke-miterlimit="10" stroke-width="1.5"/><polyline points="35.119 29.117 39.786 33.784 39.786 41.416" fill="none" stroke="#334142" stroke-miterlimit="10" stroke-width="1.5"/><path d="M36.77668,27.91783a2.09348,2.09348,0,1,1-2.0935-2.09345A2.09354,2.09354,0,0,1,36.77668,27.91783Z" fill="#f5d20e"/><path d="M45.34984,29.74963a2.09348,2.09348,0,1,1-2.09345-2.0935A2.09345,2.09345,0,0,1,45.34984,29.74963Z" fill="#65cce9"/><polyline points="50.914 28.441 46.247 33.108 46.247 40.74" fill="none" stroke="#334142" stroke-miterlimit="10" stroke-width="1.5"/><path d="M53.20344,27.91783a2.09348,2.09348,0,1,1-2.0935-2.09345A2.09354,2.09354,0,0,1,53.20344,27.91783Z" fill="#65cce9"/><line x1="31.21024" y1="42.03227" x2="42.11378" y2="42.04646" fill="none" stroke="#334142" stroke-miterlimit="10" stroke-width="1.5"/><polyline points="29.989 50.185 34.656 45.518 42.288 45.518" fill="none" stroke="#334142" stroke-miterlimit="10" stroke-width="1.5"/><path d="M28.78966,48.52777a2.09348,2.09348,0,1,1-2.09345,2.0935A2.09354,2.09354,0,0,1,28.78966,48.52777Z" fill="#f5d20e"/><path d="M30.62146,39.95461a2.09348,2.09348,0,1,1-2.0935,2.09346A2.09347,2.09347,0,0,1,30.62146,39.95461Z" fill="#65cce9"/><polyline points="29.313 34.391 33.98 39.057 41.612 39.057" fill="none" stroke="#334142" stroke-miterlimit="10" stroke-width="1.5"/><path d="M28.78966,32.101a2.09348,2.09348,0,1,1-2.09345,2.0935A2.09354,2.09354,0,0,1,28.78966,32.101Z" fill="#65cce9"/><rect x="25.38493" y="10.43201" width="34.93511" height="65.01315" rx="5" fill="none" stroke="#231f20" stroke-miterlimit="10" stroke-width="1.5"/><line x1="25.38493" y1="68.13389" x2="60.09731" y2="68.13389" fill="none" stroke="#231f20" stroke-miterlimit="10" stroke-width="1.5"/><path d="M59.52722,15.51209H25.93235a1.90077,1.90077,0,0,0-.87669-.00839" fill="none" stroke="#231f20" stroke-miterlimit="10" stroke-width="1.5"/><path d="M55.96254,12.10333a.92582.92582,0,1,1-.951.92049.93479.93479,0,0,1,.951-.92049Z" fill="#70cbf3" stroke="#231f20" stroke-miterlimit="10" fill-rule="evenodd"/><path d="M42.83891,69.49574A1.874,1.874,0,1,1,40.914,71.359a1.89216,1.89216,0,0,1,1.925-1.86322Z" fill="#70cbf3" stroke="#231f20" stroke-miterlimit="10" fill-rule="evenodd"/><path d="M42.78515,35.2688h.83722A6.77924,6.77924,0,0,1,50.4016,42.048v0a6.77933,6.77933,0,0,1-6.77933,6.77933h-.837A6.77933,6.77933,0,0,1,36.00591,42.048v0a6.77924,6.77924,0,0,1,6.77924-6.77924Z" fill="#334142"/><line x1="54.66553" y1="42.78347" x2="43.762" y2="42.76928" fill="none" stroke="#334142" stroke-miterlimit="10" stroke-width="1.5"/><polyline points="55.887 34.631 51.22 39.297 43.588 39.297" fill="none" stroke="#334142" stroke-miterlimit="10" stroke-width="1.5"/><path d="M57.08611,36.288a2.09348,2.09348,0,1,1,2.09346-2.0935A2.09353,2.09353,0,0,1,57.08611,36.288Z" fill="#f5d20e"/><path d="M55.25431,44.86112a2.09348,2.09348,0,1,1,2.0935-2.09345A2.09345,2.09345,0,0,1,55.25431,44.86112Z" fill="#65cce9"/><polyline points="56.563 50.425 51.896 45.758 44.264 45.758" fill="none" stroke="#334142" stroke-miterlimit="10" stroke-width="1.5"/><path d="M57.08611,52.71472a2.09348,2.09348,0,1,1,2.09346-2.09349A2.09352,2.09352,0,0,1,57.08611,52.71472Z" fill="#65cce9"/><path d="M43.292,38.55328a3.48027,3.48027,0,1,1-3.57487,3.46023A3.514,3.514,0,0,1,43.292,38.55328Z" fill="#5ebd6c" stroke="#231f20" stroke-miterlimit="10" fill-rule="evenodd"/><rect width="85.82496" height="85.82496" rx="5" fill="none"/></g></g></svg>