<svg xmlns="http://www.w3.org/2000/svg" viewBox="0 0 86.79843 85.82496"><g id="fc9054fc-350c-48cc-a0f1-af98dda01d23" data-name="Layer 2"><g id="b133af1d-b95a-43be-9d55-16367e3ecfd3" data-name="Layer 1"><path d="M71.96056,23.1226v7.72111H65.96831c-4.72284,0-6.33121-1.59715-8.36781-3.61951-2.521-2.50346-5.37829-5.34109-14.0965-5.3432-8.73086,0-11.53577,2.83429-14.01054,5.335-2.00568,2.02688-3.58987,3.62769-8.38714,3.62769H14.83777V23.1226h-2.479v7.72111H6.96563v9.48688H12.359l4.34039,4.163h8.68623l-4.024,8.08031V65.89512a1.2395,1.2395,0,0,0,2.479.00006V53.157l4.3143-8.66343h.09079L31.087,50.196a6.4042,6.4042,0,0,0,5.76444,3.56837h13.3233A6.4042,6.4042,0,0,0,55.9392,50.196l2.84123-5.70241h.10318L63.18552,52.826V65.89518a1.23949,1.23949,0,0,0,2.479-.00006V52.22377l-3.991-7.73022H70.3271l4.34-4.163h5.39346V30.84371h-5.621V23.1226Zm5.621,14.729H73.67032l-4.34,4.163H61.69v-.06384H27.64544v.06384H17.69623l-4.3404-4.163H9.44462V33.32269h11.6617c5.83162,0,8.02645-2.21782,10.14927-4.363C33.49336,26.69829,35.80743,24.36,43.51311,24.36c7.68689.00186,10.05271,2.35131,12.34075,4.6233,2.14854,2.13341,4.37,4.3394,10.11445,4.3394H77.5816ZM53.72045,49.09021a3.93877,3.93877,0,0,1-3.54569,2.19514H36.85146a3.9387,3.9387,0,0,1-3.54569-2.19514l-2.93989-5.9H56.66034Z" fill="#72cbf2" stroke="#000" stroke-miterlimit="10"/><rect x="71.96056" y="15.05989" width="2.47898" height="2.59277" fill="#010101"/><rect x="12.35879" y="15.05989" width="2.47898" height="2.59277" fill="#010101"/><path d="M2.50985,21.58217q.38848.20493.825.43542c.29048.17967.596-.02929.91462.0342h18.6978c.31868-.05641.62409.136.91462-.00845q.43572-.23.825-.43541c.51786-.26106.96941-.5343,1.34125-.7582.74364-.45272,1.1686-.7637,1.1686-.7637s-.425-.311-1.1686-.7637c-.37184-.2239-.82339-.49734-1.34125-.7582q-.38849-.20521-.825-.43561c-.29053-.14429-.59594.048-.91462-.00826H4.24947c-.31867.0635-.62414-.14546-.91462.034q-.4357.2303-.825.43561c-.51786.26243-.96941.5341-1.34126.7525C.425,19.78822,0,20.086,0,20.086s.425.29762,1.16859.74345C1.54044,21.04788,1.992,21.31974,2.50985,21.58217Z" fill="#010101"/><path d="M53.793,59.37511l-1.83526-1.87223a11.75932,11.75932,0,0,1-16.66695-.3957l-1.871,1.83566a14.37794,14.37794,0,0,0,20.37318.43227Z" fill="#39b54a"/><path d="M58.61226,64.28772l-2.29509-2.34016a17.97589,17.97589,0,0,1-25.47064-.48093l-2.338,2.29511a21.25157,21.25157,0,0,0,30.10376.526Z" fill="#39b54a"/><path d="M43.55127,77.16071a28.10135,28.10135,0,0,0,19.87949-7.96082l-2.75414-2.80814a24.19468,24.19468,0,0,1-34.27433-.56567l-2.80683,2.75411A28.10215,28.10215,0,0,0,43.55127,77.16071Z" fill="#39b54a"/><path d="M62.11153,21.58217q.38848.20493.825.43542c.29047.17967.59594-.02929.91462.0342H82.549c.31868-.05641.62409.136.91463-.00845q.43571-.23.825-.43541c.51786-.26106.96941-.5343,1.34126-.7582.74363-.45272,1.16859-.7637,1.16859-.7637s-.425-.311-1.16859-.7637c-.37185-.2239-.8234-.49734-1.34126-.7582q-.38849-.20521-.825-.43561c-.29054-.14429-.59595.048-.91463-.00826H63.85116c-.31868.0635-.62415-.14546-.91462.034q-.43572.2303-.825.43561c-.51786.26243-.96941.5341-1.34125.7525-.74364.44584-1.1686.74365-1.1686.74365s.425.29762,1.1686.74345C61.14212,21.04788,61.59367,21.31974,62.11153,21.58217Z" fill="#010101"/><rect x="0.48673" width="85.82496" height="85.82496" rx="5" fill="none"/></g></g></svg>