<svg xmlns="http://www.w3.org/2000/svg" viewBox="0 0 85.82496 85.82496"><g id="b6d54448-ba8b-46a4-9529-d97419163c29" data-name="Layer 2"><g id="bb183154-6188-495d-afd6-683bb8b41e6a" data-name="Layer 1"><rect x="19.22166" y="21.32442" width="32.5601" height="60.29648" rx="5" fill="none" stroke="#231f20" stroke-miterlimit="10" stroke-width="1.5"/><line x1="19.22166" y1="74.38533" x2="50.57583" y2="74.38533" fill="none" stroke="#231f20" stroke-miterlimit="10" stroke-width="1.5"/><path d="M51.78176,26.14814H20.56a1.74956,1.74956,0,0,0-.80692-.00772" fill="none" stroke="#231f20" stroke-miterlimit="10" stroke-width="1.5"/><path d="M46.99428,22.60011a.85214.85214,0,1,1-.8753.84723.86039.86039,0,0,1,.8753-.84723Z" fill="#70cbf3" stroke="#231f20" stroke-miterlimit="10" fill-rule="evenodd"/><path d="M34.91511,75.42486a1.72487,1.72487,0,1,1-1.77176,1.71494,1.74157,1.74157,0,0,1,1.77176-1.71494Z" fill="#70cbf3" stroke="#231f20" stroke-miterlimit="10" fill-rule="evenodd"/><path d="M26.59885,17.46016l1.511,1.512a9.58776,9.58776,0,0,1,13.59158.19174l1.511-1.51129a11.7228,11.7228,0,0,0-16.61354-.19246Z" fill="#39b54a"/><path d="M22.63115,13.49278l1.88955,1.8899a14.65632,14.65632,0,0,1,20.76985.1921l1.88816-1.88955a17.3271,17.3271,0,0,0-24.54756-.19245Z" fill="#39b54a"/><path d="M34.80921,2.87924A22.91189,22.91189,0,0,0,18.66409,9.52575l2.26747,2.26783a19.72671,19.72671,0,0,1,27.94812.19207l2.26677-2.26744A22.91257,22.91257,0,0,0,34.80921,2.87924Z" fill="#39b54a"/><path d="M61.82236,45.43268h7.55237A5.73134,5.73134,0,0,1,75.1061,51.164v.00005a5.73137,5.73137,0,0,1-5.73137,5.73132H64.76729a5.64709,5.64709,0,0,0-5.64711,5.64705v6.33023" fill="none" stroke="#010101" stroke-miterlimit="10" stroke-width="3.06319"/><ellipse cx="59.12019" cy="74.63779" rx="6.42168" ry="8.30793" fill="#cececd"/><rect x="57.34398" y="64.09058" width="3.57515" height="2.57215" fill="#cececd"/><path d="M62.04578,45.67033c-.25731-.0024-.669-.0024-.93965-.0005a1.831,1.831,0,0,0-.58365.72852.978.978,0,0,1-1.8668,0c-.27057-.548-.7131-1.44145-.98336-1.98471a.69791.69791,0,0,0-.05185-.08829.70626.70626,0,0,0-.05175.08829c-.30273.60826-.69683.65726-.905.63223-.21624-.026-.60353-.178-.76865-.90579l-.14878-.65519-.0889.58075c-.10065.65551-.26688,1.70411-.37076,2.33759l-.92493,5.63636c-.04753.29-.14622.89093-.6598.89093h-.01306c-.52513-.01045-.60086-.62276-.6373-.91688l-.69333-5.59859c-.07995-.64626-.206-1.69993-.28064-2.34891l-.35951-3.12178-.35968,3.12178c-.09229.80008-.47259,1.60856-1.11448,1.61026-.27154.00069-.71551.00069-.98686,0-.63987-.0017-1.194-.86305-1.42061-1.37185l-.02245-.05046c-.01087-.02448-.02135-.0456-.03115-.06382-.0099.01822-.02038.03957-.03133.06382l-.02227.05046c-.26326.59046-.70087,1.55376-.97563,2.14717a.97022.97022,0,0,1-1.87646,0,1.51406,1.51406,0,0,0-1.22627-.77679H37.72631C41.996,54.6897,53.88905,60.65929,53.88905,60.65929S65.78222,54.6897,70.05188,45.67493h-6.3277C63.07294,45.67493,62.31769,45.67277,62.04578,45.67033Z" fill="#e41e26"/><path d="M45.77,46.0382a.80687.80687,0,0,0,.04533.08535.84471.84471,0,0,0,.04535-.08535c.273-.59.7081-1.5474.96951-2.13405l.02246-.05046a.95544.95544,0,0,1,1.86012,0l.02255.05046a1.98766,1.98766,0,0,0,.571.78834c.23906.00051.58379.00051.83693,0a1.65529,1.65529,0,0,0,.23749-.73911l.71357-6.192c.0369-.32132.10573-.9196.62367-.9196.51805-.00024.58706.59805.62419.91941l.71279,6.19217c.07453.64677.2,1.69685.27973,2.3409l.41839,3.3774.56243-3.42783c.10348-.63053.269-1.67476.36912-2.32736l.30254-1.9757c.037-.242.13545-.8844.67185-.90331.54036-.01942.68026.61475.73433.85317l.42386,1.867a.99091.99091,0,0,1,.8031-.46288,1.07642,1.07642,0,0,1,.93271.68045c.27085.54417.714,1.43856.98507,1.98784a.69666.69666,0,0,0,.05088.088.68276.68276,0,0,0,.05083-.088c.23243-.47144.79336-1.271,1.421-1.2768.274-.00239.71982-.00239.994,0,.27048.00267,1.02169.0046,1.66929.0046h6.7576A14.29313,14.29313,0,0,0,71.557,39.35376c0-12.4402-14.88816-12.58324-17.66792-5.57674-2.77976-7.0065-17.66783-6.86346-17.66783,5.57674a14.29581,14.29581,0,0,0,1.0751,5.33707h6.35454A2.50491,2.50491,0,0,1,45.77,46.0382Z" fill="#e41e26"/><path d="M70.48155,44.69037q-.19937.499-.42967.98456H63.72454c-.65187,0-1.4068-.00239-1.67876-.00488-.257-.00262-.66922-.00262-.93979,0a1.83608,1.83608,0,0,0-.5836.72881.97792.97792,0,0,1-1.86624,0c-.27066-.54882-.714-1.44146-.98336-1.98545a.82021.82021,0,0,0-.05217-.08806.65369.65369,0,0,0-.05213.08806c-.303.60849-.6966.657-.90515.632-.21609-.026-.60348-.17749-.76865-.90506l-.14888-.65568-.08814.5813c-.10067.65546-.267,1.70337-.37129,2.33795l-.92506,5.63572c-.04716.29049-.14525.89143-.65924.89143h-.01371c-.52527-.01117-.60095-.62326-.637-.91738l-.69282-5.59859c-.08069-.64576-.20611-1.69993-.2806-2.34913l-.3601-3.12156-.3601,3.12156c-.09178.80075-.47185,1.609-1.11374,1.61025-.27186.00115-.71514.00115-.98709,0-.63941-.00124-1.19453-.86282-1.42039-1.37189l-.0224-.04973c-.01118-.02494-.02117-.04606-.0311-.06451a.64255.64255,0,0,0-.031.06451l-.02236.04973c-.26316.591-.70143,1.55445-.97582,2.1479a.971.971,0,0,1-1.87737,0,1.51049,1.51049,0,0,0-1.2255-.77725H37.7258q-.22905-.4859-.42967-.98456H43.651a2.506,2.506,0,0,1,2.11942,1.34834.72465.72465,0,0,0,.04472.08442.85971.85971,0,0,0,.046-.08566c.27319-.58977.70773-1.547.9697-2.133l.0224-.051a.95541.95541,0,0,1,1.85985,0l.02246.051a1.98018,1.98018,0,0,0,.57113.78833h.83687a1.6765,1.6765,0,0,0,.23722-.73988l.71389-6.19213c.03722-.3204.1055-.919.62326-.919s.58733.59855.6246.919l.7127,6.19337c.07448.64552.19989,1.69611.27935,2.34043l.41835,3.37713.56249-3.428c.10305-.63081.26942-1.675.36875-2.32692l.303-1.97661c.03722-.24085.1353-.884.6718-.90262.54-.01991.68031.61453.735.85288l.42341,1.86754a.99168.99168,0,0,1,.80334-.46316,1.0761,1.0761,0,0,1,.93247.68045c.27071.54367.71389,1.43907.98469,1.98784a.80121.80121,0,0,0,.05075.088.51373.51373,0,0,0,.051-.088c.2334-.4719.79345-1.27146,1.42168-1.27629.27319-.00267.719-.00267.99334,0,.27067.00239,1.02192.00363,1.67.00363Z" fill="#fff"/><circle cx="39.64669" cy="57.70384" r="9.77642" fill="#fff" stroke="#010101" stroke-miterlimit="10" stroke-width="3.06319"/><path d="M33.51379,57.70384a6.13291,6.13291,0,1,1,12.26582,0l-.00036.06772" fill="none" stroke="#00b8d1" stroke-miterlimit="10" stroke-width="3.06319"/><path d="M41.333,57.70384a1.6863,1.6863,0,1,1-1.68633-1.68627A1.68631,1.68631,0,0,1,41.333,57.70384Z" fill="#cececd"/><path d="M40.2826,57.72918,38.78351,57.355l2.09962-6.07842a.20812.20812,0,0,1,.40228.10039Z" fill="#cececd"/><rect width="85.82496" height="85.82496" rx="5" fill="none"/></g></g></svg>