<svg xmlns="http://www.w3.org/2000/svg" viewBox="0 0 85.82496 85.82496"><g id="b4f41617-b519-4976-8043-1aca2dbe23a9" data-name="Layer 2"><g id="a4ee4fae-b21c-436e-8215-d45e1efcf65b" data-name="Layer 1"><path d="M33.76455,15.34008a12.99071,12.99071,0,0,0-.09922,18.39625l1.67456-1.67426a10.62048,10.62048,0,0,1,.098-15.048Z" fill="#71cbf2"/><path d="M31.25591,12.83145,29.58343,11.159a18.89591,18.89591,0,0,0-.09923,26.75788L31.15669,36.245a16.53433,16.53433,0,0,1,.09922-23.41351Z" fill="#71cbf2"/><path d="M27.07363,8.64978,25.402,6.97753a24.80119,24.80119,0,0,0-.09892,35.121L26.97563,40.426a22.44075,22.44075,0,0,1,.098-31.77625Z" fill="#71cbf2"/><path d="M52.06133,15.34008l-1.674,1.674a10.62,10.62,0,0,1,.0983,15.048l1.674,1.67426a12.98975,12.98975,0,0,0-.09831-18.39625Z" fill="#71cbf2"/><path d="M56.24239,11.159,54.5696,12.83145A16.53469,16.53469,0,0,1,54.66852,36.245l1.67279,1.67188A18.89553,18.89553,0,0,0,56.24239,11.159Z" fill="#71cbf2"/><path d="M60.4229,6.92273,58.75072,8.59552a22.43953,22.43953,0,0,1,.09892,31.776L60.52243,42.044A24.80209,24.80209,0,0,0,60.4229,6.92273Z" fill="#71cbf2"/><path d="M62.36328,73.6588,43.95715,30.4724a6.17814,6.17814,0,0,1-2.4326.0119L23.30967,73.6588ZM27.61949,71.5254l15.2006-12.14525L58.04272,71.5254Zm15.2-14.32936-6.1107-4.87478H48.92249ZM58.28706,69.5373,44.18776,58.28721l6.94149-5.5458Zm-9.48912-22.266-4.71325-5.34974,1.65552-1.82535ZM42.94885,40.632l-1.22048-1.38561h2.47788ZM42.748,33.07489l1.90279,4.46476h-3.7866Zm-2.82773,6.7019,1.87478,2.12809-5.18228,5.71149Zm3.01007,3.41588,6.53745,7.42187H36.19746ZM41.45242,58.28959,27.35849,69.54926l7.10418-16.837Z" fill="#231f20"/><circle cx="42.8368" cy="24.32561" r="6.30029" transform="translate(-0.28648 0.51155) rotate(-0.68193)" fill="#5ebd6c" stroke="#231f20" stroke-miterlimit="10"/><rect width="85.82496" height="85.82496" rx="5" fill="none"/></g></g></svg>