<?xml version="1.0" encoding="UTF-8"?>
<svg xmlns="http://www.w3.org/2000/svg" viewBox="0 0 175.3 279.8">
  <defs>
    <style>
      .cls-1 {
        fill: #eeeff1;
      }

      .cls-2 {
        fill: #ffae2b;
      }

      .cls-3 {
        isolation: isolate;
      }

      .cls-4 {
        mix-blend-mode: multiply;
      }

      .cls-5 {
        fill: none;
        stroke: #334142;
        stroke-width: 1.5px;
      }

      .cls-5, .cls-6 {
        stroke-miterlimit: 10;
      }

      .cls-7 {
        fill: #fff;
      }

      .cls-8 {
        fill: #334142;
      }

      .cls-9 {
        fill: #f5d20d;
      }

      .cls-10 {
        fill: #d1d2d4;
      }

      .cls-11 {
        fill: #70cbf3;
      }

      .cls-12 {
        fill: #5ebd6c;
      }

      .cls-6 {
        fill: #5dbc6c;
        fill-rule: evenodd;
        stroke: #231f20;
      }

      .cls-13 {
        fill: #103436;
      }

      .cls-14 {
        fill: #65cce9;
      }

      .cls-15 {
        fill: #f5d20e;
      }
    </style>
  </defs>
  <g class="cls-3">
    <g id="Layer_1" data-name="Layer 1">
      <g>
        <path class="cls-7" d="M87.65,41.17c-39.93,0-72.29,7.94-72.29,64.98,0,22.43,18.18,40.61,40.61,40.61h63.36c22.43,0,40.61-18.18,40.61-40.61,0-57.04-32.36-64.98-72.29-64.98Z"/>
        <g>
          <path class="cls-7" d="M87.65,41.17c-39.93,0-72.29,7.94-72.29,64.98,0,22.43,18.18,40.61,40.61,40.61h63.36c22.43,0,40.61-18.18,40.61-40.61,0-57.04-32.36-64.98-72.29-64.98Z"/>
          <path class="cls-13" d="M119.33,149.63h-63.36c-23.97,0-43.47-19.5-43.47-43.48,0-27.33,7.33-45.72,22.4-56.23,14.69-10.24,34.91-11.62,52.75-11.62s38.06,1.38,52.75,11.62c15.07,10.5,22.4,28.89,22.4,56.23,0,23.97-19.5,43.48-43.47,43.48ZM87.65,44.03c-16.95,0-36.09,1.26-49.48,10.59-13.42,9.35-19.95,26.21-19.95,51.53,0,20.82,16.93,37.75,37.75,37.75h63.36c20.81,0,37.75-16.94,37.75-37.75,0-25.32-6.52-42.18-19.95-51.53-13.39-9.33-32.53-10.59-49.48-10.59Z"/>
        </g>
        <path d="M122.09,112.56H54.54c-18.77,0-25.87-7.33-25.87-18.38s10.88-21.63,31.49-21.63h56.31c20.61,0,31.49,10.58,31.49,21.63s-7.1,18.38-25.87,18.38Z"/>
        <path class="cls-2" d="M63.12,105.37c-7.13,0-12.93-5.8-12.93-12.93s5.8-12.93,12.93-12.93,12.93,5.8,12.93,12.93-5.8,12.93-12.93,12.93ZM63.12,82.76c-5.34,0-9.68,4.34-9.68,9.68s4.34,9.68,9.68,9.68,9.68-4.34,9.68-9.68-4.34-9.68-9.68-9.68Z"/>
        <path class="cls-2" d="M112.18,105.37c-7.13,0-12.93-5.8-12.93-12.93s5.8-12.93,12.93-12.93,12.93,5.8,12.93,12.93-5.8,12.93-12.93,12.93ZM112.18,82.76c-5.34,0-9.68,4.34-9.68,9.68s4.34,9.68,9.68,9.68,9.68-4.34,9.68-9.68-4.34-9.68-9.68-9.68Z"/>
        <path class="cls-10" d="M87.65,231.24c-13.94,0-28.91-14.08-33.44-31.44l-4.36-16.73c-4.52-17.36,6.35-31.44,24.29-31.44h27.01c17.94,0,28.82,14.07,24.29,31.44l-4.36,16.73c-4.53,17.36-19.5,31.44-33.44,31.44Z"/>
        <g>
          <path class="cls-7" d="M87.65,231.24c-13.94,0-28.91-14.08-33.44-31.44l-4.36-16.73c-4.52-17.36,6.35-31.44,24.29-31.44h27.01c17.94,0,28.82,14.07,24.29,31.44l-4.36,16.73c-4.53,17.36-19.5,31.44-33.44,31.44Z"/>
          <path class="cls-13" d="M87.65,234.1c-15.14,0-31.38-15.06-36.21-33.58l-4.36-16.73c-2.42-9.27-.92-18.05,4.23-24.7,5.14-6.65,13.25-10.32,22.84-10.32h27.01c9.58,0,17.7,3.67,22.84,10.32,5.14,6.65,6.64,15.43,4.22,24.7l-4.36,16.73c-4.83,18.52-21.07,33.58-36.21,33.58ZM74.14,154.5c-7.77,0-14.27,2.88-18.31,8.09s-5.18,12.24-3.22,19.76l4.36,16.73c4.21,16.15,17.97,29.3,30.67,29.3s26.46-13.14,30.67-29.3l4.36-16.73c1.96-7.52.82-14.54-3.21-19.76-4.03-5.22-10.54-8.1-18.31-8.1h-27.01Z"/>
        </g>
        <rect class="cls-13" x="84.62" y="18.68" width="6.05" height="20.42"/>
        <path class="cls-7" d="M96.13,17.53c0,4.68-3.79,8.48-8.48,8.48s-8.48-3.8-8.48-8.48,3.8-8.48,8.48-8.48,8.48,3.8,8.48,8.48Z"/>
        <path class="cls-13" d="M87.65,28.87c-6.25,0-11.34-5.09-11.34-11.34s5.09-11.34,11.34-11.34,11.34,5.09,11.34,11.34-5.09,11.34-11.34,11.34ZM87.65,11.92c-3.1,0-5.61,2.52-5.61,5.62s2.52,5.62,5.61,5.62,5.61-2.52,5.61-5.62-2.52-5.62-5.61-5.62Z"/>
        <path class="cls-1" d="M151.44,276.93H23.87c-7.89,0-14.58-6.62-14.94-14.79l-6.05-71.11c-.37-8.17,5.96-14.79,14.14-14.79h141.26c8.18,0,14.51,6.62,14.14,14.79l-6.05,71.11c-.35,8.17-7.04,14.79-14.94,14.79Z"/>
        <g>
          <path class="cls-7" d="M151.44,276.93H23.87c-7.89,0-14.58-6.62-14.94-14.79l-6.05-71.11c-.37-8.17,5.96-14.79,14.14-14.79h141.26c8.18,0,14.51,6.62,14.14,14.79l-6.05,71.11c-.35,8.17-7.04,14.79-14.94,14.79Z"/>
          <path class="cls-13" d="M151.44,279.8H23.87c-9.37,0-17.34-7.83-17.79-17.47L.02,191.16c-.21-4.74,1.44-9.2,4.66-12.57,3.22-3.37,7.6-5.22,12.34-5.22h141.26c4.74,0,9.13,1.85,12.34,5.22,3.22,3.37,4.87,7.83,4.66,12.57v.11s-6.05,71.05-6.05,71.05c-.45,9.64-8.42,17.47-17.79,17.47ZM5.73,190.85l6.05,71.17c.29,6.65,5.71,12.06,12.08,12.06h127.57c6.37,0,11.79-5.41,12.08-12.06v-.12s6.05-71.05,6.05-71.05c.13-3.14-.96-6.09-3.08-8.3-2.12-2.22-5.04-3.45-8.2-3.45H17.02c-3.17,0-6.08,1.22-8.21,3.45-2.11,2.21-3.21,5.16-3.08,8.3Z"/>
        </g>
        <g>
          <path class="cls-11" d="M123.62,91.92c0,6.28-5.09,11.37-11.37,11.37s-11.37-5.09-11.37-11.37,5.09-11.37,11.37-11.37,11.37,5.09,11.37,11.37Z"/>
          <path class="cls-13" d="M112.18,105.52c-7.49,0-13.59-6.1-13.59-13.59s6.1-13.59,13.59-13.59,13.59,6.1,13.59,13.59-6.1,13.59-13.59,13.59ZM112.18,82.77c-5.05,0-9.15,4.11-9.15,9.15s4.11,9.16,9.15,9.16,9.15-4.11,9.15-9.16-4.11-9.15-9.15-9.15Z"/>
        </g>
        <g>
          <g>
            <line class="cls-5" x1="88.28" y1="257.21" x2="88.32" y2="231.22"/>
            <g>
              <polyline class="cls-5" points="107.72 260.12 96.59 249 96.59 230.81"/>
              <path class="cls-15" d="M103.77,262.98c0-2.76,2.23-4.99,4.99-4.99s4.99,2.23,4.99,4.99-2.23,4.99-4.99,4.99-4.99-2.23-4.99-4.99Z"/>
            </g>
            <path class="cls-14" d="M83.33,258.61c0-2.76,2.23-4.99,4.99-4.99s4.99,2.23,4.99,4.99-2.23,4.99-4.99,4.99-4.99-2.23-4.99-4.99Z"/>
            <g>
              <polyline class="cls-5" points="70.07 261.73 81.19 250.61 81.19 232.42"/>
              <path class="cls-14" d="M64.61,262.98c0-2.76,2.23-4.99,4.99-4.99s4.99,2.23,4.99,4.99-2.23,4.99-4.99,4.99-4.99-2.23-4.99-4.99Z"/>
            </g>
          </g>
          <g>
            <line class="cls-5" x1="88.45" y1="201.26" x2="88.41" y2="227.24"/>
            <g>
              <polyline class="cls-5" points="69.02 198.35 80.14 209.47 80.14 227.66"/>
              <path class="cls-15" d="M72.97,195.49c0,2.76-2.23,4.99-4.99,4.99s-4.99-2.23-4.99-4.99,2.23-4.99,4.99-4.99,4.99,2.23,4.99,4.99Z"/>
            </g>
            <path class="cls-14" d="M93.4,199.85c0,2.76-2.23,4.99-4.99,4.99s-4.99-2.23-4.99-4.99,2.23-4.99,4.99-4.99,4.99,2.23,4.99,4.99Z"/>
            <g>
              <polyline class="cls-5" points="106.66 196.73 95.54 207.86 95.54 226.05"/>
              <path class="cls-14" d="M112.12,195.49c0,2.76-2.23,4.99-4.99,4.99s-4.99-2.23-4.99-4.99,2.23-4.99,4.99-4.99,4.99,2.23,4.99,4.99Z"/>
            </g>
          </g>
          <g>
            <line class="cls-5" x1="59.7" y1="229.13" x2="85.69" y2="229.16"/>
            <g>
              <polyline class="cls-5" points="56.79 248.56 67.91 237.44 86.1 237.44"/>
              <path class="cls-15" d="M53.93,244.61c2.76,0,4.99,2.23,4.99,4.99s-2.23,4.99-4.99,4.99-4.99-2.23-4.99-4.99,2.23-4.99,4.99-4.99Z"/>
            </g>
            <path class="cls-14" d="M58.29,224.18c2.76,0,4.99,2.23,4.99,4.99s-2.23,4.99-4.99,4.99-4.99-2.23-4.99-4.99,2.23-4.99,4.99-4.99Z"/>
            <g>
              <polyline class="cls-5" points="55.18 210.91 66.3 222.04 84.49 222.04"/>
              <path class="cls-14" d="M53.93,205.46c2.76,0,4.99,2.23,4.99,4.99s-2.23,4.99-4.99,4.99-4.99-2.23-4.99-4.99,2.23-4.99,4.99-4.99Z"/>
            </g>
          </g>
          <rect class="cls-8" x="71.13" y="213.01" width="34.31" height="32.32" rx="7.26" ry="7.26"/>
          <g>
            <line class="cls-5" x1="115.6" y1="230.92" x2="89.61" y2="230.88"/>
            <g>
              <polyline class="cls-5" points="118.51 211.49 107.39 222.61 89.2 222.61"/>
              <path class="cls-9" d="M121.37,215.44c-2.76,0-4.99-2.23-4.99-4.99s2.23-4.99,4.99-4.99,4.99,2.23,4.99,4.99-2.23,4.99-4.99,4.99Z"/>
            </g>
            <path class="cls-14" d="M117.01,235.87c-2.76,0-4.99-2.23-4.99-4.99s2.23-4.99,4.99-4.99,4.99,2.23,4.99,4.99-2.23,4.99-4.99,4.99Z"/>
            <g>
              <polyline class="cls-5" points="120.12 249.13 109 238.01 90.81 238.01"/>
              <path class="cls-14" d="M121.37,254.59c-2.76,0-4.99-2.23-4.99-4.99s2.23-4.99,4.99-4.99,4.99,2.23,4.99,4.99-2.23,4.99-4.99,4.99Z"/>
            </g>
          </g>
          <path class="cls-6" d="M88.49,220.84c4.62,0,8.43,3.72,8.43,8.25s-3.81,8.34-8.43,8.34-8.52-3.72-8.52-8.34,3.81-8.25,8.52-8.25h0Z"/>
        </g>
        <g>
          <path class="cls-12" d="M101.93,17.53c0,8.1-6.57,14.67-14.67,14.67s-14.67-6.57-14.67-14.67,6.57-14.67,14.67-14.67,14.67,6.57,14.67,14.67Z"/>
          <path class="cls-13" d="M87.18,35.07c-9.67,0-17.54-7.87-17.54-17.54S77.51,0,87.18,0s17.53,7.87,17.53,17.53-7.87,17.54-17.53,17.54ZM87.18,5.72c-6.51,0-11.81,5.3-11.81,11.81s5.3,11.81,11.81,11.81,11.81-5.3,11.81-11.81-5.3-11.81-11.81-11.81Z"/>
        </g>
        <g>
          <path class="cls-11" d="M74.42,91.92c0,6.28-5.09,11.37-11.37,11.37s-11.37-5.09-11.37-11.37,5.09-11.37,11.37-11.37,11.37,5.09,11.37,11.37Z"/>
          <path class="cls-13" d="M62.99,105.52c-7.49,0-13.59-6.1-13.59-13.59s6.1-13.59,13.59-13.59,13.59,6.1,13.59,13.59-6.1,13.59-13.59,13.59ZM62.99,82.77c-5.05,0-9.15,4.11-9.15,9.15s4.11,9.16,9.15,9.16,9.15-4.11,9.15-9.16-4.11-9.15-9.15-9.15Z"/>
        </g>
      </g>
      <g class="cls-4">
        <path d="M88.45,133.9c-8,0-15.25-2.96-18.93-7.73-.82-1.06-.62-2.6.44-3.42,1.07-.82,2.59-.63,3.42.44,2.73,3.54,8.65,5.83,15.07,5.83s12.34-2.29,15.07-5.83c.82-1.07,2.35-1.26,3.42-.44,1.06.82,1.26,2.35.44,3.42-3.68,4.77-10.93,7.73-18.93,7.73Z"/>
      </g>
    </g>
  </g>
</svg>