<svg xmlns="http://www.w3.org/2000/svg" viewBox="0 0 85.82496 85.82496"><g id="b89a412b-53fb-414e-9fc5-c2d5fff4a2ec" data-name="Layer 2"><g id="a3f66679-a26a-4479-aded-1e2cf8646795" data-name="Layer 1"><rect width="85.82496" height="85.82496" rx="5" fill="none"/><rect x="5.76555" y="16.24318" width="32.29317" height="59.80216" rx="5" fill="none" stroke="#231f20" stroke-miterlimit="10" stroke-width="1.5"/><line x1="5.76555" y1="68.86908" x2="36.86267" y2="68.86908" fill="none" stroke="#231f20" stroke-miterlimit="10" stroke-width="1.5"/><path d="M38.05871,21.02735H7.09292a1.73517,1.73517,0,0,0-.8003-.00766" fill="none" stroke="#231f20" stroke-miterlimit="10" stroke-width="1.5"/><path d="M33.31048,17.5084a.84515.84515,0,1,1-.86813.84028.85333.85333,0,0,1,.86813-.84028Z" fill="#70cbf3" stroke="#231f20" stroke-miterlimit="10" fill-rule="evenodd"/><path d="M21.33033,69.90008A1.71073,1.71073,0,1,1,19.5731,71.601a1.7273,1.7273,0,0,1,1.75723-1.70088Z" fill="#70cbf3" stroke="#231f20" stroke-miterlimit="10" fill-rule="evenodd"/><path d="M79.81022,53.86161c-.53052-3.42687-2.72611-4.02973-3.81737-4.11352a1.15847,1.15847,0,0,1-.908-.536,3.01784,3.01784,0,0,0-2.67729-1.59756,4.15292,4.15292,0,0,0-1.49974.30059.32344.32344,0,0,1-.12008.0234.35709.35709,0,0,1-.31049-.19634,3.10678,3.10678,0,0,0-2.845-1.83761,4.2313,4.2313,0,0,0-1.37038.24344,2.93168,2.93168,0,0,1-.32393.01779c-.18027,0-.55889-.16034-.55889-.36974V38.284a2.39863,2.39863,0,1,0-4.78417,0V51.4976c0,.77642-.34269,1.25649-.9322,1.25649a.93832.93832,0,0,1-.83833-.5723l-1.08806-1.91117a2.18734,2.18734,0,0,0-1.92994-1.27428,2.58086,2.58086,0,0,0-2.089,3.94392L62.6895,71.47435a.26376.26376,0,0,0,.21667.13583h12.662a.3789.3789,0,0,0,.37272-.35208l.31125-5.4612.04406-.1393C79.43222,60.51229,80.33013,57.22044,79.81022,53.86161Z" fill="#71cbf2" stroke="#231f20" stroke-miterlimit="10" stroke-width="1.5"/><path d="M43.11622,18.11083,41.6166,19.60942a9.50915,9.50915,0,0,1-.19017,13.48015l1.49891,1.49859a11.6267,11.6267,0,0,0,.19088-16.47733Z" fill="#39b54a"/><path d="M47.05107,14.17565l-1.87441,1.87406a14.53617,14.53617,0,0,1-.19052,20.59957L46.86019,38.522a17.185,17.185,0,0,0,.19088-24.34631Z" fill="#39b54a"/><path d="M57.57759,26.25388a22.72408,22.72408,0,0,0-6.592-16.01277L48.73634,12.49a19.565,19.565,0,0,1-.19049,27.719l2.24885,2.24818A22.72471,22.72471,0,0,0,57.57759,26.25388Z" fill="#39b54a"/><path d="M51.5693,56.13379l.90919-.90857a5.76525,5.76525,0,0,1,.1153-8.17282l-.90876-.90857a7.04909,7.04909,0,0,0-.11573,9.99Z" fill="#bcbec0"/><path d="M49.18365,58.51963l1.13643-1.13622a8.81306,8.81306,0,0,1,.11551-12.48921l-1.13621-1.13538a10.419,10.419,0,0,0-.11573,14.76081Z" fill="#bcbec0"/><path d="M42.80158,51.19678a13.77729,13.77729,0,0,0,3.99664,9.7083l1.36368-1.36347A11.86195,11.86195,0,0,1,48.2774,42.736L46.914,41.373A13.77767,13.77767,0,0,0,42.80158,51.19678Z" fill="#bcbec0"/></g></g></svg>